<svg width="63" height="60" viewBox="0 0 63 60" fill="none" xmlns="http://www.w3.org/2000/svg">
<path d="M62.4115 24.8772C62.4115 17.9772 57.4115 12.3772 50.8115 11.2772C49.4115 5.27725 44.0115 0.677246 37.4115 0.677246C35.4115 0.677246 33.6115 1.07725 31.9115 1.87725C30.2115 1.07725 28.4115 0.677246 26.4115 0.677246C19.9115 0.677246 14.5115 5.17725 13.0115 11.1772C6.21152 11.9772 0.811523 17.7772 0.811523 24.8772C0.811523 26.8772 1.21152 28.6772 2.01152 30.3772C1.21152 32.0772 0.811523 33.9772 0.811523 35.8772C0.811523 42.9772 6.21152 48.8772 13.2115 49.5772V49.0772C14.8115 54.8772 20.1115 59.1772 26.5115 59.1772C28.5115 59.1772 30.3115 58.7772 32.0115 57.9772C33.7115 58.6772 35.6115 59.1772 37.5115 59.1772C43.7115 59.1772 48.9115 55.0772 50.6115 49.4772C57.3115 48.5772 62.5115 42.7772 62.5115 35.8772C62.5115 33.8772 62.1115 32.0772 61.3115 30.3772C62.0115 28.7772 62.4115 26.8772 62.4115 24.8772ZM26.4115 3.57725C28.0115 3.57725 29.4115 3.87725 30.8115 4.47725L32.0115 4.97725L33.1115 4.47725C34.4115 3.87725 35.9115 3.57725 37.5115 3.57725C43.5115 3.57725 48.4115 8.47725 48.4115 14.4772C48.4115 20.4772 43.5115 25.3772 37.5115 25.3772C37.4115 25.3772 37.3115 25.3772 37.2115 25.3772C36.5115 24.6772 35.8115 24.0772 34.9115 23.6772L35.0115 23.5772C36.1115 22.5772 38.2115 20.1772 38.8115 17.4772C39.4115 14.7772 38.8115 12.3772 38.3115 11.2772L37.8115 10.5772L36.2115 11.2772L36.6115 12.0772C36.9115 12.6772 37.5115 14.8772 37.0115 17.1772C36.5115 19.2772 34.8115 21.3772 33.8115 22.2772L33.5115 22.5772C33.9115 21.4772 34.3115 19.8772 34.1115 18.3772C33.8115 16.3772 32.7115 14.8772 32.1115 14.2772L31.5115 13.6772L30.2115 14.9772L30.8115 15.5772C31.1115 15.8772 32.0115 17.0772 32.3115 18.6772C32.5115 20.2772 31.8115 22.1772 31.5115 22.6772L31.3115 23.0772C30.2115 23.1772 29.2115 23.4772 28.3115 23.9772C27.8115 17.2772 22.7115 11.9772 16.1115 11.2772C17.4115 6.77725 21.5115 3.57725 26.4115 3.57725ZM31.8115 34.9772C29.3115 34.9772 27.2115 32.9772 27.2115 30.3772C27.2115 27.8772 29.2115 25.7772 31.8115 25.7772C34.4115 25.7772 36.4115 27.7772 36.4115 30.3772C36.4115 32.8772 34.3115 34.9772 31.8115 34.9772ZM33.2115 23.1772C33.2115 23.0772 33.2115 23.0772 33.2115 23.1772H33.3115H33.2115ZM12.7115 46.5772C7.61152 45.6772 3.71152 41.2772 3.71152 35.8772C3.71152 34.2772 4.01152 32.8772 4.61152 31.4772L5.11152 30.2772L4.61152 29.1772C4.01152 27.8772 3.71152 26.3772 3.71152 24.7772C3.71152 18.7772 8.61152 13.8772 14.6115 13.8772C20.6115 13.8772 25.5115 18.7772 25.5115 24.7772C25.5115 25.2772 25.4115 25.8772 25.4115 26.3772C24.3115 25.2772 22.1115 23.3772 19.5115 22.8772C16.8115 22.2772 14.4115 22.8772 13.3115 23.3772L12.5115 23.7772L13.2115 25.3772L14.0115 24.9772C14.6115 24.6772 16.8115 24.0772 19.1115 24.5772C21.2115 25.0772 23.3115 26.7772 24.2115 27.7772L24.5115 28.0772C23.4115 27.6772 21.8115 27.2772 20.3115 27.4772C18.3115 27.7772 16.8115 28.8772 16.2115 29.4772L15.6115 30.0772L16.9115 31.3772L17.5115 30.7772C17.8115 30.4772 19.0115 29.5772 20.6115 29.2772C22.0115 29.0772 23.5115 29.5772 24.3115 29.8772L24.1115 30.2772L24.5115 31.2772C24.5115 31.4772 24.5115 31.5772 24.6115 31.7772C17.9115 32.6772 12.7115 38.3772 12.7115 45.3772C12.6115 45.8772 12.7115 46.2772 12.7115 46.5772ZM37.4115 56.3772C35.8115 56.3772 34.4115 56.0772 33.0115 55.4772L31.8115 54.9772L30.8115 55.4772C29.5115 56.0772 28.0115 56.3772 26.4115 56.3772C20.4115 56.3772 15.5115 51.4772 15.5115 45.4772C15.5115 39.6772 20.0115 34.9772 25.7115 34.6772C26.2115 35.4772 26.9115 36.0772 27.7115 36.5772C26.6115 37.7772 25.0115 39.7772 24.5115 42.0772C23.9115 44.7772 24.5115 47.1772 25.0115 48.2772L25.4115 49.0772L27.0115 48.3772L26.6115 47.5772C26.3115 46.9772 25.7115 44.7772 26.2115 42.4772C26.6115 40.4772 28.3115 38.3772 29.3115 37.4772C29.4115 37.4772 29.5115 37.5772 29.5115 37.5772C29.2115 38.6772 28.9115 39.9772 29.1115 41.3772C29.4115 43.3772 30.5115 44.8772 31.1115 45.4772L31.7115 46.0772L33.0115 44.7772L32.4115 44.1772C32.1115 43.8772 31.2115 42.6772 30.9115 41.0772C30.7115 39.9772 31.0115 38.7772 31.3115 37.8772C31.4115 37.8772 31.6115 37.8772 31.7115 37.8772C32.8115 37.8772 33.9115 37.5772 34.9115 37.1772C35.5115 43.8772 40.7115 49.1772 47.4115 49.6772C45.9115 53.5772 42.0115 56.3772 37.4115 56.3772ZM58.7115 31.5772C59.3115 32.8772 59.6115 34.3772 59.6115 35.9772C59.6115 41.9772 54.7115 46.8772 48.7115 46.8772C42.7115 46.8772 37.8115 41.9772 37.8115 35.9772C37.8115 35.5772 37.8115 35.0772 37.9115 34.6772C38.0115 34.5772 38.0115 34.4772 38.1115 34.3772C39.3115 35.4772 41.3115 37.0772 43.7115 37.5772C44.5115 37.7772 45.3115 37.7772 46.0115 37.7772C47.7115 37.7772 49.2115 37.3772 49.9115 37.0772L50.7115 36.6772L50.0115 35.0772L49.2115 35.4772C48.6115 35.7772 46.5115 36.3772 44.1115 35.8772C42.0115 35.3772 39.8115 33.6772 38.9115 32.6772C38.9115 32.5772 38.9115 32.5772 38.9115 32.4772C39.7115 32.7772 40.8115 32.9772 41.9115 32.9772C42.2115 32.9772 42.5115 32.9772 42.9115 32.8772C44.9115 32.5772 46.4115 31.4772 47.0115 30.8772L47.6115 30.2772L46.3115 28.9772L45.7115 29.6772C45.4115 29.9772 44.2115 30.8772 42.6115 31.1772C41.4115 31.3772 40.1115 30.9772 39.2115 30.6772C39.2115 30.5772 39.2115 30.5772 39.2115 30.4772C39.2115 29.6772 39.1115 28.8772 38.8115 28.1772C45.7115 27.4772 51.2115 21.6772 51.2115 14.5772V14.4772C56.0115 15.5772 59.6115 19.8772 59.6115 25.0772C59.6115 26.6772 59.3115 28.0772 58.7115 29.4772L58.2115 30.6772L58.7115 31.5772Z" fill="#272324"/>
</svg>
